<?xml version="1.0" encoding="UTF-8"?>
<svg width="550px" height="550px" viewBox="0 0 550 550" version="1.1" xmlns="http://www.w3.org/2000/svg" xmlns:xlink="http://www.w3.org/1999/xlink">
    <title>instagram</title>
    <g id="Page-1" stroke="none" stroke-width="1" fill="none" fill-rule="evenodd">
        <g id="instagram" fill-rule="nonzero">
            <path d="M550,424.423828 C550,493.818359 493.818359,550 424.423828,550 L125.576172,550 C56.1816407,550 0,493.818359 0,424.423828 L0,125.683593 C0,56.2890625 56.2890625,0 125.683593,0 L422.490234,0 C492.958984,0 550,57.0410157 550,127.509766 L550,424.423828 Z" id="Path" fill="#D42F7E"></path>
            <g id="Group" transform="translate(89.000000, 89.000000)" fill="#FFFFFF">
                <path d="M257.2,0.6 L114.8,0.6 C51.7,0.6 0.5,51.8 0.5,114.9 L0.5,257.2 C0.5,320.3 51.6,371.4 114.8,371.4 L257.1,371.4 C320.2,371.4 371.300293,320.3 371.300293,257.2 L371.300293,114.9 C371.4,51.7 320.3,0.6 257.2,0.6 Z M335.8,243.5 C335.8,294.5 294.5,335.8 243.5,335.8 L128.5,335.8 C77.5,335.8 36.2,294.5 36.2,243.5 L36.2,128.5 C36.2,77.5 77.5,36.2 128.5,36.2 L243.5,36.2 C294.5,36.2 335.8,77.6 335.8,128.5 L335.8,243.5 Z" id="Shape"></path>
                <path d="M191,89 C137,89 93.3,132.7 93.3,186.7 C93.3,240.6 137,284.4 191,284.4 C244.9,284.4 288.7,240.7 288.7,186.7 C288.6,132.7 244.9,89 191,89 Z M191,245.4 C158.5,245.4 132.2,219.1 132.2,186.6 C132.2,154.1 158.5,127.8 191,127.8 C223.4,127.8 249.8,154.1 249.8,186.6 C249.7,219.1 223.4,245.4 191,245.4 Z" id="Shape"></path>
                <path d="M306.7,87.5 C306.7,101.2 295.6,112.3 281.9,112.3 C268.2,112.3 257.1,101.2 257.1,87.5 C257.1,73.8 268.2,62.6 281.9,62.6 C295.6,62.6 306.7,73.7 306.7,87.5 Z" id="Path"></path>
            </g>
        </g>
    </g>
</svg>