<svg xmlns="http://www.w3.org/2000/svg" width="30" height="30" fill="currentColor" viewBox="0 0 30 30">
  <path d="M7.5,0 C7.77614237,-5.07265313e-17 8,0.223857625 8,0.5 L8,2 L22,2 L22,0.5 C22,0.223857625 22.2238576,5.07265313e-17 22.5,0 L23.5,0 C23.7761424,-5.07265313e-17 24,0.223857625 24,0.5 L24,2 L26,2 C27.1045695,2 28,2.8954305 28,4 L28,28 C28,29.1045695 27.1045695,30 26,30 L4,30 C2.8954305,30 2,29.1045695 2,28 L2,4 C2,2.8954305 2.8954305,2 4,2 L6,2 L6,0.5 C6,0.223857625 6.22385763,5.07265313e-17 6.5,0 L7.5,0 Z M26,11 L4,11 L4,28 L26,28 L26,11 Z M15.5,14 C15.7761424,14 16,14.2238576 16,14.5 L16,18 L19.5,18 C19.7761424,18 20,18.2238576 20,18.5 L20,19.5 C20,19.7761424 19.7761424,20 19.5,20 L16,20 L16,23.5 C16,23.7761424 15.7761424,24 15.5,24 L14.5,24 C14.2238576,24 14,23.7761424 14,23.5 L14,20 L10.5,20 C10.2238576,20 10,19.7761424 10,19.5 L10,18.5 C10,18.2238576 10.2238576,18 10.5,18 L14,18 L14,14.5 C14,14.2238576 14.2238576,14 14.5,14 L15.5,14 Z M6,4 L4,4 L4,9 L26,9 L26,4 L24,4 L24,4.5 C24,4.77614237 23.7761424,5 23.5,5 L22.5,5 C22.2238576,5 22,4.77614237 22,4.5 L22,4 L8,4 L8,4.5 C8,4.77614237 7.77614237,5 7.5,5 L6.5,5 C6.22385763,5 6,4.77614237 6,4.5 L6,4 Z"/>
</svg>
