<svg xmlns="http://www.w3.org/2000/svg" width="25" height="25" fill="currentColor" viewBox="0 0 395 451">
  <path d="M367.14813,11.5001562 C372.577322,11.5233537 376.977614,15.8687359 377.102952,21.2627407 L377.105606,21.5426593 L377.035,37.9990654 L448,38 L448,462 L53,462 L53,38 L125.035,37.9990654 L125.105787,21.4577909 C125.129222,15.9349931 129.625333,11.4768794 135.14813,11.5001562 C140.577322,11.5233537 144.977614,15.8687359 145.102952,21.2627407 L145.105606,21.5426593 L145.035,37.9990654 L357.035,37.9990654 L357.105787,21.4577909 C357.129222,15.9349931 361.625333,11.4768794 367.14813,11.5001562 Z M73,172.512065 L73,442 L428,442 L428,172.986065 L73,172.512065 Z M250.292267,240.125015 C255.721458,240.148212 260.121751,244.493594 260.247089,249.887599 L260.249743,250.167518 L260.042,299.106065 L320.013226,299.186925 C325.536069,299.194298 330.00724,303.677424 329.999875,309.200267 C329.992618,314.629502 325.660051,319.042413 320.266434,319.183439 L319.986524,319.186907 L259.957,319.106065 L259.750077,367.917351 C259.726641,373.440148 255.23053,377.898262 249.707733,377.874985 C244.278542,377.851788 239.878249,373.506406 239.752911,368.112401 L239.750257,367.832482 L239.957,319.079065 L179.986649,318.999991 C174.463806,318.992617 169.992635,314.509491 170,308.986649 C170.007258,303.557414 174.339824,299.144503 179.733441,299.003477 L180.013351,299.000009 L240.041,299.079065 L240.249923,250.082649 C240.273359,244.559852 244.76947,240.101738 250.292267,240.125015 Z M124.95,57.9990654 L73,58 L73,152.512065 L428,152.986065 L428,58 L376.95,57.9990654 L376.893435,71.5422091 C376.87,77.0650069 372.373889,81.5231206 366.851092,81.4998438 C361.4219,81.4766463 357.021608,77.1312641 356.89627,71.7372593 L356.893616,71.4573407 L356.95,57.9990654 L144.95,57.9990654 L144.893435,71.5422091 C144.87,77.0650069 140.373889,81.5231206 134.851092,81.4998438 C129.4219,81.4766463 125.021608,77.1312641 124.89627,71.7372593 L124.893616,71.4573407 L124.95,57.9990654 Z" transform="translate(-53 -11)"/>
</svg>
