<svg xmlns="http://www.w3.org/2000/svg" xmlns:xlink="http://www.w3.org/1999/xlink" width="40" height="40" viewBox="0 0 500 500">
  <defs>
    <circle id="instagram-a" cx="250" cy="250" r="250"/>
    <circle id="instagram-c" cx="250" cy="250" r="250"/>
  </defs>
  <g fill="none" fill-rule="evenodd">
    <mask id="instagram-b" fill="#fff">
      <use xlink:href="#instagram-a"/>
    </mask>
    <path fill="#D42F7E" fill-rule="nonzero" d="M500,385.839844 C500,448.925781 448.925781,500 385.839844,500 L114.160156,500 C51.0742188,500 0,448.925781 0,385.839844 L0,114.257812 C0,51.171875 51.171875,0 114.257812,0 L384.082031,0 C448.144531,0 500,51.8554688 500,115.917969 L500,385.839844 Z" mask="url(#instagram-b)"/>
    <mask id="instagram-d" fill="#fff">
      <use xlink:href="#instagram-c"/>
    </mask>
    <g mask="url(#instagram-d)">
      <g transform="translate(81 81)">
        <path fill="#FFF" fill-rule="nonzero" d="M233.692473,0.54516129 L104.307527,0.54516129 C46.9747312,0.54516129 0.454301075,47.0655914 0.454301075,104.398387 L0.454301075,233.692473 C0.454301075,291.025269 46.883871,337.454839 104.307527,337.454839 L233.601613,337.454839 C290.934409,337.454839 337.364509,291.025269 337.364509,233.692473 L337.364509,104.398387 C337.454839,46.9747312 291.025269,0.54516129 233.692473,0.54516129 Z M305.108602,221.244624 C305.108602,267.583333 267.583333,305.108602 221.244624,305.108602 L116.755376,305.108602 C70.4166667,305.108602 32.8913978,267.583333 32.8913978,221.244624 L32.8913978,116.755376 C32.8913978,70.4166667 70.4166667,32.8913978 116.755376,32.8913978 L221.244624,32.8913978 C267.583333,32.8913978 305.108602,70.5075269 305.108602,116.755376 L305.108602,221.244624 Z"/>
        <path fill="#FFF" fill-rule="nonzero" d="M173.543011 80.8655914C124.478495 80.8655914 84.7725806 120.571505 84.7725806 169.636022 84.7725806 218.609677 124.478495 258.406452 173.543011 258.406452 222.516667 258.406452 262.313441 218.700538 262.313441 169.636022 262.222581 120.571505 222.516667 80.8655914 173.543011 80.8655914zM173.543011 222.970968C144.013441 222.970968 120.117204 199.074731 120.117204 169.545161 120.117204 140.015591 144.013441 116.119355 173.543011 116.119355 202.98172 116.119355 226.968817 140.015591 226.968817 169.545161 226.877957 199.074731 202.98172 222.970968 173.543011 222.970968zM278.66828 79.5026882C278.66828 91.9505376 268.582796 102.036022 256.134946 102.036022 243.687097 102.036022 233.601613 91.9505376 233.601613 79.5026882 233.601613 67.0548387 243.687097 56.8784946 256.134946 56.8784946 268.582796 56.8784946 278.66828 66.9639785 278.66828 79.5026882z"/>
      </g>
    </g>
  </g>
</svg>
