<svg xmlns="http://www.w3.org/2000/svg" width="40" height="40" viewBox="0 0 500 500">
  <g fill="none">
    <rect width="500" height="500" fill="#55ACEE" rx="250"/>
    <path fill="#FFF" d="M309.85,119.95 C274.37921,120.84879 245.925,149.88138 245.925,185.575 C245.925,190.71327 246.47622,195.73656 247.6,200.55 C193.03433,197.80874 144.65713,171.67251 112.275,131.95 C106.62353,141.64191 103.375,152.93158 103.375,164.975 C103.375,187.74967 114.98309,207.82938 132.6,219.6 C121.84278,219.25572 111.70394,216.29242 102.85,211.375 C102.845,211.64782 102.85,211.94569 102.85,212.225 C102.85,244.02902 125.4879,270.5338 155.525,276.575 C150.01648,278.06906 144.21425,278.875 138.225,278.875 C133.98966,278.875 129.88297,278.47302 125.875,277.7 C134.23522,303.78109 158.45006,322.77385 187.175,323.3 C164.70563,340.91043 136.43966,351.4 105.675,351.4 C100.38084,351.4 95.13825,351.11062 90,350.5 C119.06272,369.13683 153.55282,380 190.625,380 C311.39052,380 377.425,279.95942 377.425,193.2 C377.425,190.3548 377.3733,187.49423 377.25,184.675 C390.07294,175.4378 401.20454,163.86724 410,150.7 C398.2359,155.92922 385.58414,159.47146 372.3,161.05 C385.86346,152.9301 396.27061,140.06834 401.175,124.725 C388.48848,132.25377 374.43507,137.72585 359.475,140.675 C347.50303,127.91702 330.43363,119.95 311.55,119.95 C310.98354,119.95 310.41302,119.9357 309.85,119.95 L309.85,119.95 Z"/>
  </g>
</svg>
